# xmcd
#
# Track frame offsets:
#	150
#	13945
#	29491
#	50847
#	66083
#	85073
#	103395
#	118656
#	138383
#	155272
#
# Disc length: 2299 seconds
#
# Revision: 3
# Processed by: cddbd v1.5.2PL0 Copyright (c) Steve Scherf et al.
# Submitted via: EZCDAudioConverter 1.3.2.1
#
DISCID=8b08f90a
DTITLE=조용필 - Hello
DYEAR=2013
DGENRE=K-Pop
TTITLE0=Bounce
TTITLE1=Hello
TTITLE2=걷고 싶다
TTITLE3=충전이 필요해
TTITLE4=서툰 바람
TTITLE5=말해볼까
TTITLE6=널 만나면
TTITLE7=어느날 귀로에서
TTITLE8=설렘
TTITLE9=그리운 것은
EXTD=
EXTT0=
EXTT1=
EXTT2=
EXTT3=
EXTT4=
EXTT5=
EXTT6=
EXTT7=
EXTT8=
EXTT9=
PLAYORDER=
